<?xml version="1.0" standalone="no"?>
<!DOCTYPE svg PUBLIC "-//W3C//DTD SVG 20010904//EN"
 "http://www.w3.org/TR/2001/REC-SVG-20010904/DTD/svg10.dtd">
<svg version="1.0" xmlns="http://www.w3.org/2000/svg"
 width="909.000000pt" height="909.000000pt" viewBox="0 0 909.000000 909.000000"
 preserveAspectRatio="xMidYMid meet">

<g transform="translate(0.000000,909.000000) scale(0.100000,-0.100000)"
fill="#000000" stroke="none">
<path d="M0 4545 l0 -4545 4545 0 4545 0 0 4545 0 4545 -4545 0 -4545 0 0
-4545z m4890 2859 c676 -78 1309 -388 1786 -876 452 -461 726 -1015 825 -1668
19 -122 23 -188 23 -415 0 -289 -9 -385 -60 -630 -243 -1152 -1166 -2064
-2324 -2295 -231 -46 -332 -55 -610 -54 -211 0 -280 4 -400 23 -432 66 -817
207 -1165 426 -140 88 -217 145 -355 259 -78 66 -339 336 -401 416 -391 504
-631 1150 -633 1705 -1 176 16 249 83 353 56 86 95 127 171 176 253 167 539
146 754 -55 135 -126 187 -243 206 -464 21 -245 81 -457 189 -668 70 -138 108
-196 202 -312 60 -74 193 -206 269 -267 207 -167 492 -298 771 -353 112 -23
417 -31 547 -15 582 71 1093 431 1355 955 78 154 122 282 158 455 26 124 37
419 19 557 -47 384 -211 728 -478 1005 -304 315 -695 501 -1131 538 -187 16
-271 42 -373 118 -168 124 -259 292 -261 482 -1 117 13 180 66 289 31 63 59
103 112 155 159 160 319 199 655 160z m-1550 -410 c189 -54 359 -217 421 -405
51 -157 22 -378 -67 -511 -52 -76 -86 -110 -194 -191 -120 -91 -255 -227 -348
-350 -40 -52 -93 -114 -120 -137 -75 -65 -193 -119 -301 -137 -85 -14 -103
-14 -187 -1 -143 24 -227 68 -334 176 -138 139 -186 262 -178 457 7 151 38
228 152 380 162 216 358 411 586 585 121 92 208 131 350 154 42 7 162 -4 220
-20z m685 -1459 c129 -34 231 -119 293 -244 36 -73 37 -77 37 -191 0 -114 -1
-117 -38 -193 -140 -283 -505 -344 -723 -121 -193 197 -164 524 60 679 113 77
245 102 371 70z"/>
</g>
</svg>
